<?xml version="1.0" standalone="no"?>
<!DOCTYPE svg PUBLIC "-//W3C//DTD SVG 20010904//EN"
 "http://www.w3.org/TR/2001/REC-SVG-20010904/DTD/svg10.dtd">
<svg version="1.0" xmlns="http://www.w3.org/2000/svg"
 width="512.000000pt" height="512.000000pt" viewBox="0 0 512.000000 512.000000"
 preserveAspectRatio="xMidYMid meet">
<metadata>
Created by potrace 1.11, written by Peter Selinger 2001-2013
</metadata>
<g transform="translate(0.000000,512.000000) scale(0.100000,-0.100000)"
fill="#000000" stroke="none">
<path d="M2567 5059 c-107 -30 -217 -96 -275 -164 -54 -63 -117 -178 -128
-234 -4 -17 -9 -31 -13 -31 -3 0 -24 19 -46 41 -167 171 -423 215 -643 112
-108 -50 -238 -210 -281 -344 -61 -191 -11 -402 146 -620 56 -78 295 -329 314
-329 5 0 9 -5 9 -10 0 -7 -6 -7 -17 -1 -33 17 -247 89 -328 109 -277 71 -529
38 -683 -91 -99 -83 -186 -218 -211 -328 -13 -57 -14 -152 -1 -220 27 -144
164 -321 301 -388 36 -18 72 -33 80 -35 8 -1 24 -6 37 -10 22 -7 22 -9 -22
-54 -61 -63 -79 -88 -108 -147 -93 -187 -77 -409 40 -567 73 -99 221 -193 349
-223 78 -19 211 -12 293 14 36 11 66 21 67 21 2 0 -6 -15 -16 -33 -81 -144
-179 -443 -205 -622 -27 -183 -27 -373 -1 -550 14 -99 23 -140 57 -252 10 -35
41 -63 70 -63 13 0 116 71 193 133 6 4 49 37 98 73 97 74 108 93 84 157 -26
69 -40 131 -57 247 -7 51 -5 284 4 340 26 166 49 261 99 410 38 113 133 335
122 285 -37 -163 -43 -207 -40 -315 3 -130 8 -162 37 -234 31 -80 75 -146 137
-206 65 -62 71 -67 164 -115 200 -105 435 -66 603 100 79 78 119 140 150 231
l20 61 60 -56 c177 -168 457 -203 664 -83 71 41 167 147 205 227 69 145 84
254 53 394 -38 178 -139 332 -358 550 -74 74 -125 129 -115 122 48 -28 310
-114 381 -125 20 -4 46 -9 58 -11 45 -11 105 -15 196 -15 84 0 119 5 230 37
74 20 186 109 274 217 46 55 94 177 104 263 28 238 -153 509 -387 579 l-60 17
53 58 c214 230 210 574 -9 776 -221 205 -520 216 -800 30 -96 -64 -162 -121
-288 -250 -115 -118 -118 -120 -98 -74 92 214 142 439 137 617 -6 214 -71 345
-240 479 -58 47 -150 93 -212 107 -69 15 -180 12 -247 -7z"/>
</g>
</svg>
